<svg width="326" height="28" viewBox="0 0 326 28" fill="none" xmlns="http://www.w3.org/2000/svg">
<line x1="0.151855" y1="13.6598" x2="140.762" y2="13.6598" stroke="#8FA8D7" stroke-width="0.837696"/>
<path d="M160.053 19.1766C159.147 19.1766 158.321 18.9666 157.575 18.5466C156.828 18.1173 156.235 17.5246 155.797 16.7686C155.367 16.0033 155.153 15.1446 155.153 14.1926C155.153 13.2406 155.367 12.3866 155.797 11.6306C156.235 10.8653 156.828 10.2726 157.575 9.85261C158.321 9.42328 159.147 9.20861 160.053 9.20861C160.967 9.20861 161.798 9.42328 162.545 9.85261C163.291 10.2726 163.879 10.8606 164.309 11.6166C164.738 12.3726 164.953 13.2313 164.953 14.1926C164.953 15.1539 164.738 16.0126 164.309 16.7686C163.879 17.5246 163.291 18.1173 162.545 18.5466C161.798 18.9666 160.967 19.1766 160.053 19.1766ZM160.053 18.0706C160.734 18.0706 161.345 17.9119 161.887 17.5946C162.437 17.2773 162.867 16.8246 163.175 16.2366C163.492 15.6486 163.651 14.9673 163.651 14.1926C163.651 13.4086 163.492 12.7273 163.175 12.1486C162.867 11.5606 162.442 11.1079 161.901 10.7906C161.359 10.4733 160.743 10.3146 160.053 10.3146C159.362 10.3146 158.746 10.4733 158.205 10.7906C157.663 11.1079 157.234 11.5606 156.917 12.1486C156.609 12.7273 156.455 13.4086 156.455 14.1926C156.455 14.9673 156.609 15.6486 156.917 16.2366C157.234 16.8246 157.663 17.2773 158.205 17.5946C158.755 17.9119 159.371 18.0706 160.053 18.0706ZM167.909 12.6526C168.133 12.2139 168.45 11.8733 168.861 11.6306C169.281 11.3879 169.789 11.2666 170.387 11.2666V12.5826H170.051C168.623 12.5826 167.909 13.3573 167.909 14.9066V19.0786H166.635V11.4066H167.909V12.6526Z" fill="#595959"/>
<line x1="184.568" y1="13.6598" x2="325.178" y2="13.6598" stroke="#8FA8D7" stroke-width="0.837696"/>
</svg>
